<?xml version="1.0" encoding="UTF-8" standalone="no"?>
<!-- Created with Inkscape (http://www.inkscape.org/) -->

<svg
   width="1080"
   height="750.09509"
   viewBox="0 0 1080 750.09509"
   version="1.1"
   id="SVGRoot"
   sodipodi:docname="icons.svg"
   inkscape:version="1.3.2 (091e20e, 2023-11-25, custom)"
   inkscape:export-filename="logo-bi-square-3.svg"
   inkscape:export-xdpi="96"
   inkscape:export-ydpi="96"
   xmlns:inkscape="http://www.inkscape.org/namespaces/inkscape"
   xmlns:sodipodi="http://sodipodi.sourceforge.net/DTD/sodipodi-0.dtd"
   xmlns="http://www.w3.org/2000/svg"
   xmlns:svg="http://www.w3.org/2000/svg">
  <sodipodi:namedview
     id="namedview923"
     pagecolor="#ffffff"
     bordercolor="#666666"
     borderopacity="1.0"
     inkscape:pageshadow="2"
     inkscape:pageopacity="0.0"
     inkscape:pagecheckerboard="0"
     inkscape:document-units="px"
     showgrid="true"
     inkscape:zoom="0.3174838"
     inkscape:cx="185.83625"
     inkscape:cy="332.30042"
     inkscape:window-width="1366"
     inkscape:window-height="705"
     inkscape:window-x="-8"
     inkscape:window-y="-8"
     inkscape:window-maximized="1"
     inkscape:current-layer="layer1"
     inkscape:showpageshadow="2"
     inkscape:deskcolor="#d1d1d1">
    <inkscape:grid
       type="xygrid"
       id="grid986"
       originx="-1.7161443e-05"
       originy="-164.95242"
       spacingy="1"
       spacingx="1"
       units="px"
       visible="true" />
  </sodipodi:namedview>
  <defs
     id="defs918" />
  <g
     inkscape:label="Capa 1"
     inkscape:groupmode="layer"
     id="layer1"
     transform="translate(-1.7161443e-5,-164.95242)">
    <g
       id="g1"
       transform="matrix(1.4305755,0,0,1.4305755,846.90071,-3.8554789)"
       inkscape:export-filename="logo-bi-shaped-2.svg"
       inkscape:export-xdpi="96"
       inkscape:export-ydpi="96">
      <path
         id="path3-0-9-5-1-4-9-1-6-5"
         style="fill:#06d6a0;fill-opacity:1;stroke:#06d6a0;stroke-width:5.11081;stroke-linecap:round;stroke-dasharray:none;stroke-opacity:1;paint-order:fill markers stroke"
         d="m -123.15362,232.66032 c 28.8887,-2e-4 52.3074,-24.8302 52.307,-55.4591 3e-4,-30.629 -23.4183,-55.459 -52.307,-55.4591 l -58.6112,0.062 v 110.7455 z"
         sodipodi:nodetypes="cccccc" />
      <path
         id="path3-0-9-5-1-4-3-8"
         style="fill:#06d6a0;fill-opacity:1;stroke:#06d6a0;stroke-width:5.11082;stroke-linecap:round;stroke-dasharray:none;stroke-opacity:1;paint-order:fill markers stroke"
         d="m 101.77431,121.94962 c -28.8887,2e-4 -52.3074,24.8301 -52.307,55.4591 -3e-4,30.629 23.4183,55.4589 52.307,55.4591 l 58.6112,-0.061 v -110.7458 z"
         sodipodi:nodetypes="cccccc" />
      <path
         id="path3-0-9-5-1-37-1"
         style="fill:#073b4c;fill-opacity:1;stroke:#073b4c;stroke-width:4.06504;stroke-linecap:round;stroke-opacity:1;paint-order:fill markers stroke"
         d="m 75.9025,553.31512 -86.3954,-1.0395 c -47.9305,-0.5767 -86.7922,-42.8491 -86.7922,-95.7061 0,-52.8571 38.8629,-95.0325 86.7922,-95.7062 l 86.0799,0.015 z m -96.3451,-279.4105 c -89.3856,5e-4 -161.8463,82.0208 -161.8451,183.1969 0,101.1761 72.4595,183.1965 161.8451,183.197 l 181.351,-0.203 v -365.8241 z"
         sodipodi:nodetypes="cssccccccccc"
         inkscape:export-filename=".\logo-mono-shaped.svg"
         inkscape:export-xdpi="96"
         inkscape:export-ydpi="96" />
      <path
         id="path10"
         style="fill:#073b4c;fill-opacity:1;stroke:#073b4c;stroke-width:4.06504;stroke-linecap:round;stroke-opacity:1;paint-order:fill markers stroke"
         d="m -246.7156,639.93172 -181.351,0.3668 c -89.3856,-5e-4 -161.8463,-82.0209 -161.8998,-183.3532 l 85.0583,0.3439 c 0,53.2014 38.8619,95.3769 86.7911,96.0505 l 86.0799,-0.015 c 0.3736,-144.4305 0.3155,-288.8613 0.3155,-433.2922 h 85.2287 c -0.3458,173.2994 -0.2227,346.5992 -0.2227,519.8988 z"
         sodipodi:nodetypes="cccccccccc" />
    </g>
  </g>
</svg>
